{"title":"Wreck-It Ralph[2012]WEBRrip[Ac3-5.1]-=[CaLvIn]=-","uid":8163721,"size":751686414,"categoryP":"video","categoryS":"movies","magnet":"?xt=urn:btih:5fbb9d4a95ce13d67d345082224ae302e23f9905&amp;dn=Wreck-It+Ralph%5B2012%5DWEBRrip%5BAc3-5.1%5D-%3D%5BCaLvIn%5D%3D-&amp;tr=udp%3A%2F%2Ftracker.openbittorrent.com%3A80&amp;tr=udp%3A%2F%2Fopen.demonii.com%3A1337&amp;tr=udp%3A%2F%2Ftracker.coppersurfer.tk%3A6969&amp;tr=udp%3A%2F%2Fexodus.desync.com%3A6969","seeders":1,"leechers":0,"uploader":"rhythmtheguru","files":15,"time":1361294286,"description":"General\nComplete name                    : Wreck-It Ralph[2012]WEBRrip[Ac3-5.1]-=[CaLvIn]=-\nImdb Link                        : http://www.imdb.com/title/tt1772341/\nFormat                           : AVI\nFormat/Info                      : Audio Video Interleave\nFile size                        : 698 MiB\nDuration                         : 1h 41mn\nOverall bit rate                 : 963 Kbps\nWriting application              : VirtualDubMod 1.5.10.3 | www.virtualdub-fr.org || (build 2550/release)\nWriting library                  : VirtualDubMod build 2550/release\n\nVideo\nID                               : 0\nFormat                           : MPEG-4 Visual\nFormat profile                   : Advanced Simple@L5\nFormat settings, BVOP            : 2\nFormat settings, QPel            : No\nFormat settings, GMC             : No warppoints\nFormat settings, Matrix          : Default (H.263)\nCodec ID                         : XVID\nCodec ID/Hint                    : XviD\nDuration                         : 1h 41mn\nBit rate                         : 698 Kbps\nWidth                            : 720 pixels\nHeight                           : 400 pixels\nDisplay aspect ratio             : 16:9\nFrame rate                       : 23.976 fps\nColor space                      : YUV\nChroma subsampling               : 4:2:0\nBit depth                        : 8 bits\nScan type                        : Progressive\nCompression mode                 : Lossy\nBits/(Pixel*Frame)               : 0.101\nStream size                      : 505 MiB (72%)\nWriting library                  : XviD 1.2.1 (UTC 2008-12-04)\n\nAudio\nID                               : 1\nFormat                           : AC-3\nFormat/Info                      : Audio Coding 3\nMode extension                   : CM (complete main)\nCodec ID                         : 2000\nDuration                         : 1h 41mn\nBit rate mode                    : Constant\nBit rate                         : 256 Kbps\nChannel(s)                       : 6 channels\nChannel positions                : Front: L C R, Side: L R, LFE\nSampling rate                    : 48.0 KHz\nBit depth                        : 16 bits\nCompression mode                 : Lossy\nStream size                      : 185 MiB (27%)\nAlignment                        : Split accross interleaves\nInterleave, duration             : 42 ms (1.00 video frame)\nInterleave, preload duration     : 500 ms\n\n\nScreens\n &lt;a href=&quot;\nhttp://img802.imageshack.us/img802/927/74800322.png&quot; rel=&quot;nofollow&quot; target=&quot;_NEW&quot;&gt;\nhttp://img802.imageshack.us/img802/927/74800322.png&lt;/a&gt; &lt;a href=&quot;\nhttp://img801.imageshack.us/img801/862/47962580.png&quot; rel=&quot;nofollow&quot; target=&quot;_NEW&quot;&gt;\nhttp://img801.imageshack.us/img801/862/47962580.png&lt;/a&gt; &lt;a href=&quot;\nhttp://img502.imageshack.us/img502/6534/53926798.png&quot; rel=&quot;nofollow&quot; target=&quot;_NEW&quot;&gt;\nhttp://img502.imageshack.us/img502/6534/53926798.png&lt;/a&gt; &lt;a href=&quot;\nhttp://img203.imageshack.us/img203/3113/63780504.png&quot; rel=&quot;nofollow&quot; target=&quot;_NEW&quot;&gt;\nhttp://img203.imageshack.us/img203/3113/63780504.png&lt;/a&gt; &lt;a href=&quot;\nhttp://img46.imageshack.us/img46/8527/56572571.png&quot; rel=&quot;nofollow&quot; target=&quot;_NEW&quot;&gt;\nhttp://img46.imageshack.us/img46/8527/56572571.png&lt;/a&gt; &lt;a href=&quot;\nhttp://img24.imageshack.us/img24/3999/83961645.png&quot; rel=&quot;nofollow&quot; target=&quot;_NEW&quot;&gt;\nhttp://img24.imageshack.us/img24/3999/83961645.png&lt;/a&gt; &lt;a href=&quot;\nhttp://img829.imageshack.us/img829/142/79765910.png&quot; rel=&quot;nofollow&quot; target=&quot;_NEW&quot;&gt;\nhttp://img829.imageshack.us/img829/142/79765910.png&lt;/a&gt; &lt;a href=&quot;\nhttp://img109.imageshack.us/img109/9466/28590249.png&quot; rel=&quot;nofollow&quot; target=&quot;_NEW&quot;&gt;\nhttp://img109.imageshack.us/img109/9466/28590249.png&lt;/a&gt; &lt;a href=&quot;\nhttp://img809.imageshack.us/img809/3585/96199759.png&quot; rel=&quot;nofollow&quot; target=&quot;_NEW&quot;&gt;\nhttp://img809.imageshack.us/img809/3585/96199759.png&lt;/a&gt; &lt;a href=&quot;\nhttp://img341.imageshack.us/img341/4273/88503069.png&quot; rel=&quot;nofollow&quot; target=&quot;_NEW&quot;&gt;\nhttp://img341.imageshack.us/img341/4273/88503069.png&lt;/a&gt;","torrent":{"xt":"urn:btih:5fbb9d4a95ce13d67d345082224ae302e23f9905","amp;dn":"Wreck-It+Ralph%5B2012%5DWEBRrip%5BAc3-5.1%5D-%3D%5BCaLvIn%5D%3D-","amp;tr":["udp%3A%2F%2Ftracker.openbittorrent.com%3A80","udp%3A%2F%2Fopen.demonii.com%3A1337","udp%3A%2F%2Ftracker.coppersurfer.tk%3A6969","udp%3A%2F%2Fexodus.desync.com%3A6969"],"infoHash":"5fbb9d4a95ce13d67d345082224ae302e23f9905","infoHashBuffer":{"type":"Buffer","data":[95,187,157,74,149,206,19,214,125,52,80,130,34,74,227,2,226,63,153,5]},"announce":[],"urlList":[]}}